# xmcd CD database file
#
# Track frame offsets:
#	183
#	16185
#	33733
#
# Disc length: 807 seconds
#
# Revision: 1
# Processed by: cddbd v1.5.2PL0 Copyright (c) Steve Scherf et al.
# Submitted via: CDex 1.51
#
DISCID=1b032503
DTITLE=Robben Ford and The Blue Line - Trying To Do The Right Thing
DYEAR=1994
DGENRE=Blues
TTITLE0=Trying to Do the Right Thing
TTITLE1=Politician
TTITLE2=The Plunge
EXTD=YEAR: 1994
EXTT0=
EXTT1=
EXTT2=
PLAYORDER=
